<svg xmlns="http://www.w3.org/2000/svg" viewBox="0 0 64 64" fill="none" stroke="currentColor" stroke-width="3" stroke-linecap="round" stroke-linejoin="round">
  <!-- Hand -->
  <path d="M8 38 C8 38 16 42 32 42 C44 42 52 38 56 34 C58 32 58 28 54 28 C50 28 46 30 42 32 L42 32 C42 32 44 28 44 24 C44 20 40 18 38 20 L32 30" />
  <path d="M8 38 L8 28 C8 26 10 24 12 24 L18 24" />
  <!-- Dollar sign -->
  <path d="M32 4 L32 10" />
  <path d="M32 18 L32 24" />
  <path d="M26 10 C26 10 26 8 32 8 C38 8 38 12 38 12 C38 14 36 15 32 15 C28 15 26 16 26 18 C26 20 28 22 32 22 C36 22 38 20 38 20" />
</svg>
